<?xml version="1.0" encoding="utf-8"?>
<!-- Generator: Adobe Illustrator 19.2.1, SVG Export Plug-In . SVG Version: 6.00 Build 0)  -->
<svg version="1.1" id="Layer_1" xmlns="http://www.w3.org/2000/svg" xmlns:xlink="http://www.w3.org/1999/xlink" x="0px" y="0px"
	 viewBox="0 0 220 88" style="enable-background:new 0 0 220 88;" xml:space="preserve">
<style type="text/css">
	.st0{fill:#878787;}
	.st1{fill:#6870C8;}
</style>
<g>
	<g>
		<path class="st0" d="M205,30.9c-0.2,0-0.3-0.1-0.4-0.2l-14.7-14.6c-0.2-0.3-0.2-0.6,0-0.9c0.2-0.3,0.6-0.2,0.9,0l14.7,14.7
			c0.2,0.2,0.2,0.6,0,0.9C205.4,30.9,205.2,30.9,205,30.9z"/>
	</g>
	<g>
		<path class="st0" d="M190.4,30.9c-0.2,0-0.3-0.1-0.4-0.2c-0.2-0.2-0.2-0.6,0-0.9l14.6-14.6c0.2-0.2,0.6-0.2,0.9,0
			c0.3,0.2,0.2,0.6,0,0.9l-14.7,14.7C190.7,30.9,190.5,30.9,190.4,30.9z"/>
	</g>
</g>
<g>
	<g>
		<path class="st0" d="M105.9,25.6l-6-5.5c-0.5-0.6-0.5-1.3-0.1-1.9l2.3-2.6c0.2-0.3,0.6-0.6,1.1-0.6s0.9,0.2,1.2,0.5l5.7,5.8
			l-0.8,0.7l-5.7-5.8c-0.1-0.2-0.2-0.2-0.4-0.2c-0.1,0-0.3,0.1-0.4,0.2l-2.2,2.6c-0.1,0.2-0.1,0.4,0,0.6l5.9,5.4L105.9,25.6z"/>
	</g>
	<g>
		<path class="st0" d="M107.8,31c-0.4,0-0.8-0.2-1.1-0.5l-5.7-5.8l0.7-0.7l5.7,5.9c0.1,0.1,0.2,0.1,0.4,0.1c0.2,0,0.3-0.1,0.4-0.2
			l2.3-2.6c0.1-0.2,0.1-0.4-0.1-0.6l-5.7-5.6l0.7-0.7l5.7,5.6c0.5,0.5,0.5,1.3,0.1,1.9l-2.3,2.6C108.7,30.7,108.3,31,107.8,31
			L107.8,31z"/>
	</g>
</g>
<g>
	<g>
		<path class="st0" d="M29.5,28.7h-3c-0.2,0-0.4-0.2-0.4-0.4c0-0.2,0.2-0.4,0.4-0.4h2.6V15.7h-9.4v1.8c0,0.2-0.2,0.4-0.4,0.4
			c-0.2,0-0.4-0.2-0.4-0.4v-2.2c0-0.2,0.2-0.4,0.4-0.4h10.2c0.2,0,0.4,0.2,0.4,0.4v13C29.9,28.5,29.7,28.7,29.5,28.7z"/>
	</g>
	<g>
		<g>
			<path class="st0" d="M26.5,30.9H16.3c-0.2,0-0.4-0.2-0.4-0.4v-13c0-0.2,0.2-0.4,0.4-0.4h7.1c0.3,0,0.5,0.2,0.5,0.4
				c0,0.2-0.2,0.4-0.4,0.4h-6.8v12.2h9.4V21c0-0.2,0.2-0.4,0.4-0.4c0.2,0,0.4,0.1,0.4,0.4v9.5C26.9,30.7,26.7,30.9,26.5,30.9z"/>
		</g>
		<g>
			<path class="st0" d="M26.5,21.4h-3l0,0c-0.2,0-0.4-0.2-0.4-0.4v-3.5c0-0.2,0.1-0.3,0.3-0.4c0.2-0.1,0.3,0,0.4,0.1l3,3.5
				c0.1,0.1,0.1,0.3,0.1,0.4S26.7,21.4,26.5,21.4z M23.9,20.5h1.7l-1.7-1.9V20.5z"/>
		</g>
	</g>
</g>
<g>
	<g>
		<path class="st0" d="M156.7,20.8c-1.6,0-2.9-1.3-2.9-2.9c0-1.7,1.3-3,2.9-3c1.6,0,3,1.3,3,2.9C159.7,19.5,158.4,20.8,156.7,20.8z
			 M156.7,15.7c-1.2,0-2.2,1-2.2,2.2c0,1.2,1,2.2,2.2,2.2c1.2,0,2.2-1,2.2-2.2C158.9,16.7,157.9,15.7,156.7,15.7z"/>
	</g>
	<g>
		<path class="st0" d="M148.7,25.8c-1.7,0-3-1.3-3-2.9s1.3-3,3-3c1.6,0,2.9,1.3,2.9,3S150.3,25.8,148.7,25.8z M148.7,20.7
			c-1.2,0-2.2,1-2.2,2.2c0,1.2,1,2.2,2.2,2.2c1.2,0,2.2-1,2.2-2.2C150.9,21.7,149.9,20.7,148.7,20.7z"/>
	</g>
	<g>
		<path class="st0" d="M156.7,30.9c-1.6,0-2.9-1.3-2.9-2.9c0-1.6,1.3-2.9,2.9-2.9c1.6,0,2.9,1.3,2.9,2.9
			C159.7,29.6,158.4,30.9,156.7,30.9z M156.7,25.8c-1.2,0-2.2,1-2.2,2.2c0,1.2,1,2.2,2.2,2.2c1.2,0,2.2-1,2.2-2.2
			C158.9,26.8,157.9,25.8,156.7,25.8z"/>
	</g>
	<g>
		
			<rect x="150.1" y="19.8" transform="matrix(0.8039 -0.5948 0.5948 0.8039 17.8835 94.5618)" class="st0" width="4.5" height="0.8"/>
	</g>
	<g>
		
			<rect x="152.3" y="23.7" transform="matrix(0.6098 -0.7926 0.7926 0.6098 39.0623 131.0917)" class="st0" width="0.8" height="4.3"/>
	</g>
</g>
<g>
	<g>
		<path class="st0" d="M72.2,30.5h-15c-0.3,0-0.5-0.2-0.5-0.5c0-0.3,0.2-0.5,0.5-0.5h15c0.3,0,0.5,0.2,0.5,0.5
			C72.7,30.3,72.5,30.5,72.2,30.5z"/>
	</g>
	<g>
		<path class="st0" d="M72.2,30.5c-0.3,0-0.5-0.2-0.5-0.5v-5.5c0-0.3,0.2-0.5,0.5-0.5c0.3,0,0.5,0.2,0.5,0.5V30
			C72.7,30.3,72.5,30.5,72.2,30.5z"/>
	</g>
	<g>
		<path class="st0" d="M57.2,30.5c-0.3,0-0.5-0.2-0.5-0.5v-5.5c0-0.3,0.2-0.5,0.5-0.5s0.5,0.3,0.5,0.5V30
			C57.7,30.3,57.5,30.5,57.2,30.5z"/>
	</g>
	<g>
		<path class="st0" d="M64.9,26.6c-0.3,0-0.5-0.2-0.5-0.5V15.8c0-0.3,0.2-0.5,0.5-0.5s0.5,0.2,0.5,0.5v10.4
			C65.4,26.4,65.2,26.6,64.9,26.6z"/>
	</g>
	<g>
		<path class="st0" d="M64.9,26.6c-0.1,0-0.3,0-0.4-0.1c-0.2-0.2-0.2-0.5,0-0.7l2.9-2.9c0.2-0.2,0.5-0.2,0.7,0
			c0.2,0.2,0.2,0.5,0,0.7l-2.9,2.9C65.2,26.6,65,26.6,64.9,26.6z"/>
	</g>
	<g>
		<path class="st0" d="M64.9,26.6c-0.1,0-0.3,0-0.4-0.1l-3-3.1c-0.2-0.2-0.2-0.5,0-0.7c0.2-0.2,0.5-0.2,0.7,0l3.1,3.1
			c0.2,0.2,0.2,0.5,0,0.7C65.2,26.6,65,26.6,64.9,26.6z"/>
	</g>
</g>
<g>
	<g>
		<path class="st1" d="M205,74c-0.2,0-0.3-0.1-0.4-0.2l-14.7-14.6c-0.2-0.3-0.2-0.6,0-0.9c0.2-0.3,0.6-0.2,0.9,0L205.5,73
			c0.2,0.2,0.2,0.6,0,0.9C205.4,74,205.2,74,205,74z"/>
	</g>
	<g>
		<path class="st1" d="M190.4,74c-0.2,0-0.3-0.1-0.4-0.2c-0.2-0.2-0.2-0.6,0-0.9l14.6-14.6c0.2-0.2,0.6-0.2,0.9,0
			c0.3,0.2,0.2,0.6,0,0.9l-14.7,14.7C190.7,74,190.5,74,190.4,74z"/>
	</g>
</g>
<g>
	<g>
		<path class="st1" d="M105.9,68.8l-6-5.5c-0.5-0.6-0.5-1.3-0.1-1.9l2.3-2.6c0.2-0.3,0.6-0.6,1.1-0.6s0.9,0.2,1.2,0.5l5.7,5.8
			l-0.8,0.7l-5.7-5.8c-0.1-0.2-0.2-0.2-0.4-0.2c-0.1,0-0.3,0.1-0.4,0.2l-2.2,2.6c-0.1,0.2-0.1,0.4,0,0.6l5.9,5.4L105.9,68.8z"/>
	</g>
	<g>
		<path class="st1" d="M107.8,74.2c-0.4,0-0.8-0.2-1.1-0.5l-5.7-5.8l0.7-0.7l5.7,5.9c0.1,0.1,0.2,0.1,0.4,0.1c0.2,0,0.3-0.1,0.4-0.2
			l2.3-2.6c0.1-0.2,0.1-0.4-0.1-0.6l-5.7-5.6l0.7-0.7l5.7,5.6c0.5,0.5,0.5,1.3,0.1,1.9l-2.3,2.6C108.7,73.9,108.3,74.2,107.8,74.2
			L107.8,74.2z"/>
	</g>
</g>
<g>
	<g>
		<path class="st1" d="M29.5,71.9h-3c-0.2,0-0.4-0.2-0.4-0.4c0-0.2,0.2-0.4,0.4-0.4h2.6V58.9h-9.4v1.8c0,0.2-0.2,0.4-0.4,0.4
			c-0.2,0-0.4-0.2-0.4-0.4v-2.2c0-0.2,0.2-0.4,0.4-0.4h10.2c0.2,0,0.4,0.2,0.4,0.4v13C29.9,71.7,29.7,71.9,29.5,71.9z"/>
	</g>
	<g>
		<g>
			<path class="st1" d="M26.5,74.1H16.3c-0.2,0-0.4-0.2-0.4-0.4v-13c0-0.2,0.2-0.4,0.4-0.4h7.1c0.3,0,0.5,0.2,0.5,0.4
				s-0.2,0.4-0.4,0.4h-6.8v12.2h9.4v-9.1c0-0.2,0.2-0.4,0.4-0.4c0.2,0,0.4,0.1,0.4,0.4v9.5C26.9,73.9,26.7,74.1,26.5,74.1z"/>
		</g>
		<g>
			<path class="st1" d="M26.5,64.6h-3l0,0c-0.2,0-0.4-0.2-0.4-0.4v-3.5c0-0.2,0.1-0.3,0.3-0.4c0.2-0.1,0.3,0,0.4,0.1l3,3.5
				c0.1,0.1,0.1,0.3,0.1,0.4S26.7,64.6,26.5,64.6z M23.9,63.7h1.7l-1.7-1.9V63.7z"/>
		</g>
	</g>
</g>
<g>
	<g>
		<path class="st1" d="M156.7,64c-1.6,0-2.9-1.3-2.9-2.9c0-1.7,1.3-3,2.9-3c1.6,0,3,1.3,3,2.9C159.7,62.7,158.4,64,156.7,64z
			 M156.7,58.9c-1.2,0-2.2,1-2.2,2.2s1,2.2,2.2,2.2c1.2,0,2.2-1,2.2-2.2S157.9,58.9,156.7,58.9z"/>
	</g>
	<g>
		<path class="st1" d="M148.7,69c-1.7,0-3-1.3-3-2.9s1.3-3,3-3c1.6,0,2.9,1.3,2.9,3C151.6,67.8,150.3,69,148.7,69z M148.7,63.9
			c-1.2,0-2.2,1-2.2,2.2s1,2.2,2.2,2.2c1.2,0,2.2-1,2.2-2.2S149.9,63.9,148.7,63.9z"/>
	</g>
	<g>
		<path class="st1" d="M156.7,74.1c-1.6,0-2.9-1.3-2.9-2.9s1.3-2.9,2.9-2.9c1.6,0,2.9,1.3,2.9,2.9C159.7,72.8,158.4,74.1,156.7,74.1
			z M156.7,69c-1.2,0-2.2,1-2.2,2.2s1,2.2,2.2,2.2c1.2,0,2.2-1,2.2-2.2S157.9,69,156.7,69z"/>
	</g>
	<g>
		
			<rect x="150.1" y="62.9" transform="matrix(0.8039 -0.5948 0.5948 0.8039 -7.7802 103.0238)" class="st1" width="4.5" height="0.8"/>
	</g>
	<g>
		
			<rect x="152.3" y="66.9" transform="matrix(0.6098 -0.7926 0.7926 0.6098 4.8646 147.9289)" class="st1" width="0.8" height="4.3"/>
	</g>
</g>
<g>
	<g>
		<path class="st1" d="M72.2,73.6h-15c-0.3,0-0.5-0.2-0.5-0.5c0-0.3,0.2-0.5,0.5-0.5h15c0.3,0,0.5,0.2,0.5,0.5
			C72.7,73.4,72.5,73.6,72.2,73.6z"/>
	</g>
	<g>
		<path class="st1" d="M72.2,73.6c-0.3,0-0.5-0.2-0.5-0.5v-5.5c0-0.3,0.2-0.5,0.5-0.5c0.3,0,0.5,0.2,0.5,0.5v5.5
			C72.7,73.4,72.5,73.6,72.2,73.6z"/>
	</g>
	<g>
		<path class="st1" d="M57.2,73.6c-0.3,0-0.5-0.2-0.5-0.5v-5.5c0-0.3,0.2-0.5,0.5-0.5s0.5,0.3,0.5,0.5v5.5
			C57.7,73.4,57.5,73.6,57.2,73.6z"/>
	</g>
	<g>
		<path class="st1" d="M64.9,69.7c-0.3,0-0.5-0.2-0.5-0.5V58.9c0-0.3,0.2-0.5,0.5-0.5s0.5,0.2,0.5,0.5v10.4
			C65.4,69.5,65.2,69.7,64.9,69.7z"/>
	</g>
	<g>
		<path class="st1" d="M64.9,69.7c-0.1,0-0.3,0-0.4-0.1c-0.2-0.2-0.2-0.5,0-0.7l2.9-2.9c0.2-0.2,0.5-0.2,0.7,0
			c0.2,0.2,0.2,0.5,0,0.7l-2.9,2.9C65.2,69.7,65,69.7,64.9,69.7z"/>
	</g>
	<g>
		<path class="st1" d="M64.9,69.7c-0.1,0-0.3,0-0.4-0.1l-3-3.1c-0.2-0.2-0.2-0.5,0-0.7c0.2-0.2,0.5-0.2,0.7,0l3.1,3.1
			c0.2,0.2,0.2,0.5,0,0.7C65.2,69.7,65,69.7,64.9,69.7z"/>
	</g>
</g>
</svg>
